<?xml version="1.0" standalone="no"?>
<!DOCTYPE svg PUBLIC "-//W3C//DTD SVG 20010904//EN"
        "http://www.w3.org/TR/2001/REC-SVG-20010904/DTD/svg10.dtd">
<svg version="1.0" xmlns="http://www.w3.org/2000/svg"
     width="700.000000pt" height="700.000000pt" viewBox="0 0 700.000000 700.000000"
     preserveAspectRatio="xMidYMid meet">
    <metadata>
        Created by potrace 1.14, written by Peter Selinger 2001-2017
    </metadata>
    <g transform="translate(0.000000,700.000000) scale(0.100000,-0.100000)"
       fill="#000000" stroke="none">
        <path d="M5450 6986 c-271 -67 -477 -244 -570 -491 -37 -99 -47 -159 -48 -278
0 -131 20 -224 73 -336 37 -78 97 -167 128 -190 10 -7 17 -21 14 -30 -2 -9
-55 -88 -117 -176 -62 -88 -128 -180 -145 -205 -59 -83 -244 -345 -269 -380
-14 -19 -106 -148 -203 -285 l-178 -250 -73 36 c-132 67 -261 99 -412 104
-296 10 -558 -92 -762 -297 l-46 -47 -74 57 c-40 30 -95 73 -123 95 -27 21
-63 49 -80 62 -16 13 -176 137 -355 276 -179 139 -354 275 -390 302 -36 28
-93 72 -127 99 l-61 48 19 40 c50 103 65 275 34 395 -51 199 -207 369 -400
435 -329 113 -692 -71 -798 -405 -26 -84 -31 -259 -8 -340 49 -177 189 -343
347 -410 96 -41 138 -49 264 -49 118 0 130 2 207 32 45 18 98 44 118 57 20 14
40 25 45 25 6 0 127 -91 271 -202 236 -184 879 -684 938 -729 l24 -19 -26 -58
c-66 -146 -93 -393 -63 -562 39 -214 143 -413 293 -556 24 -23 43 -45 43 -49
0 -4 -59 -91 -132 -194 -72 -102 -179 -253 -237 -336 -59 -82 -118 -166 -132
-185 -14 -19 -74 -104 -133 -187 l-107 -153 -52 26 c-133 68 -228 89 -397 88
-626 -2 -1022 -672 -727 -1228 112 -210 303 -359 542 -421 74 -20 253 -28 320
-14 28 5 63 12 78 14 51 9 161 55 227 95 268 160 426 454 407 762 -6 108 -10
130 -38 217 -25 78 -59 147 -110 223 -22 31 -39 60 -39 63 0 4 172 249 381
545 l382 539 51 -21 c65 -26 169 -56 221 -65 57 -8 250 -9 315 -1 49 6 190 44
231 62 13 6 35 -20 100 -116 78 -116 129 -191 302 -445 41 -60 154 -227 252
-373 99 -146 201 -296 227 -334 29 -42 44 -74 39 -80 -131 -168 -181 -299
-181 -474 1 -211 76 -382 231 -526 78 -72 206 -142 304 -166 63 -16 234 -21
288 -8 23 5 50 11 60 13 72 15 191 75 262 132 118 96 204 231 244 383 15 58
19 99 16 180 -4 112 -7 135 -31 208 -70 211 -234 376 -444 445 -93 31 -134 38
-230 38 -96 0 -139 -7 -223 -36 l-68 -23 -27 41 c-15 23 -29 44 -32 47 -3 3
-70 102 -149 220 -80 118 -177 262 -216 320 -39 58 -143 211 -230 340 -87 129
-178 262 -201 295 l-41 60 76 75 c120 117 206 252 257 400 10 30 23 58 27 61
5 4 28 2 51 -3 22 -5 52 -12 66 -14 14 -3 60 -11 103 -20 42 -8 87 -17 100
-19 84 -16 370 -75 372 -77 1 -2 5 -28 8 -58 6 -69 39 -168 80 -240 41 -74
158 -188 234 -228 120 -63 180 -77 323 -76 217 2 421 127 529 324 64 119 88
301 56 433 -127 520 -799 655 -1110 222 -23 -33 -46 -71 -50 -84 -6 -21 -11
-23 -49 -17 -41 6 -49 7 -142 26 -28 6 -64 13 -80 16 -16 3 -36 7 -44 9 -8 2
-31 7 -50 10 -19 3 -89 17 -155 30 -66 13 -132 26 -148 29 -62 11 -67 15 -68
59 -3 203 -106 463 -244 616 -43 47 -48 32 69 196 47 66 90 127 96 135 6 8
144 204 308 435 338 479 320 453 369 523 20 30 42 56 50 59 8 3 28 -2 46 -11
67 -34 196 -56 312 -52 127 4 209 23 315 73 219 105 374 297 429 534 22 94 23
268 2 349 -75 283 -257 481 -525 572 -80 27 -107 31 -221 34 -85 2 -149 -2
-185 -10z"/>
    </g>
</svg>
